<svg width="35" height="35" viewBox="0 0 35 35" fill="none" xmlns="http://www.w3.org/2000/svg">
<path fill-rule="evenodd" clip-rule="evenodd" d="M20.9799 17.9864C20.7788 17.4176 20.4063 16.9252 19.9137 16.577C19.4212 16.2287 18.8327 16.0417 18.2295 16.0417V15.3125H16.7712V16.0417C15.9976 16.0417 15.2557 16.349 14.7088 16.8959C14.1618 17.4429 13.8545 18.1848 13.8545 18.9583C13.8545 19.7319 14.1618 20.4737 14.7088 21.0207C15.2557 21.5677 15.9976 21.875 16.7712 21.875V24.7917C16.1368 24.7917 15.5965 24.387 15.3952 23.8197C15.3654 23.7269 15.3172 23.641 15.2536 23.5671C15.1899 23.4932 15.1121 23.4329 15.0248 23.3896C14.9374 23.3463 14.8423 23.321 14.7449 23.3151C14.6476 23.3093 14.5501 23.323 14.4582 23.3555C14.3663 23.388 14.2818 23.4385 14.2097 23.5042C14.1377 23.5699 14.0796 23.6494 14.0388 23.738C13.998 23.8265 13.9754 23.9224 13.9723 24.0198C13.9692 24.1173 13.9857 24.2143 14.0207 24.3053C14.2219 24.874 14.5944 25.3664 15.0869 25.7147C15.5795 26.063 16.1679 26.25 16.7712 26.25V26.9792H18.2295V26.25C19.003 26.25 19.7449 25.9427 20.2919 25.3957C20.8389 24.8487 21.1462 24.1069 21.1462 23.3333C21.1462 22.5598 20.8389 21.8179 20.2919 21.2709C19.7449 20.724 19.003 20.4167 18.2295 20.4167V17.5C18.5311 17.4999 18.8253 17.5934 19.0716 17.7674C19.3179 17.9415 19.5041 18.1877 19.6047 18.472C19.6691 18.6543 19.8033 18.8037 19.9778 18.8871C20.0642 18.9284 20.1579 18.9523 20.2535 18.9573C20.3491 18.9624 20.4448 18.9487 20.5351 18.9168C20.6254 18.8849 20.7085 18.8355 20.7798 18.7715C20.851 18.7075 20.9089 18.6301 20.9502 18.5437C20.9915 18.4573 21.0154 18.3636 21.0205 18.268C21.0256 18.1723 21.0118 18.0767 20.9799 17.9864ZM16.7712 17.5C16.3844 17.5 16.0135 17.6536 15.74 17.9271C15.4665 18.2006 15.3128 18.5716 15.3128 18.9583C15.3128 19.3451 15.4665 19.716 15.74 19.9895C16.0135 20.263 16.3844 20.4167 16.7712 20.4167V17.5ZM18.2295 24.7917C18.6163 24.7917 18.9872 24.638 19.2607 24.3645C19.5342 24.091 19.6878 23.7201 19.6878 23.3333C19.6878 22.9466 19.5342 22.5756 19.2607 22.3021C18.9872 22.0286 18.6163 21.875 18.2295 21.875V24.7917Z" fill="white"/>
<path fill-rule="evenodd" clip-rule="evenodd" d="M9.59104 6.28615C11.3804 5.41042 14.316 4.375 17.5287 4.375C20.6744 4.375 23.5327 5.3674 25.3126 6.23146L25.4132 6.28031C25.9499 6.54573 26.383 6.79656 26.6878 7L23.9943 10.9375C30.2038 17.2856 35.0003 30.6228 17.5287 30.6228C0.057188 30.6228 4.72458 17.5277 10.9881 10.9375L8.31208 7C8.51844 6.8651 8.78021 6.70833 9.09229 6.54208C9.24687 6.45896 9.41312 6.37365 9.59104 6.28687V6.28615ZM22.2632 10.885L24.4194 7.73281C22.4142 7.87719 20.0283 8.34823 17.7315 9.01323C16.0908 9.48719 14.2679 9.415 12.5799 9.10364C12.1545 9.02478 11.7321 8.93091 11.3133 8.82219L12.7133 10.8835C15.7138 11.9518 19.262 11.9518 22.2632 10.885ZM11.8711 12.126C15.3821 13.4823 19.6018 13.4823 23.1127 12.1246C24.5782 13.6695 25.8042 15.4251 26.7498 17.333C27.7356 19.3441 28.2723 21.3544 28.1848 23.0869C28.1002 24.7588 27.4425 26.1873 25.9404 27.249C24.3749 28.3551 21.7419 29.1645 17.528 29.1645C13.3098 29.1645 10.6644 28.3689 9.08427 27.2752C7.57125 26.2267 6.90698 24.8179 6.81292 23.1685C6.71448 21.455 7.23948 19.4549 8.22166 17.43C9.15864 15.4992 10.466 13.6405 11.8711 12.126ZM11.0326 7.23042C11.6159 7.40396 12.2255 7.55489 12.8439 7.66937C14.4116 7.95812 15.9836 8.00042 17.3253 7.61177C18.8888 7.15629 20.479 6.79807 22.0868 6.53917C20.7451 6.13521 19.1759 5.83333 17.528 5.83333C15.016 5.83333 12.6732 6.53406 11.0326 7.23042Z" fill="white"/>
</svg>
